<svg width="50" height="50" viewBox="0 0 50 50" fill="none" xmlns="http://www.w3.org/2000/svg">
<path d="M2.55272 41.541C1.6194 41.541 1.15708 40.408 1.82395 39.7551L3.95161 37.6717C4.14629 37.4811 4.40791 37.3743 4.68038 37.3743L44.3214 37.3743C44.5543 37.3743 44.7805 37.4524 44.9638 37.596L47.6234 39.6793C48.4027 40.2898 47.971 41.541 46.981 41.541L2.55272 41.541Z" fill="#FFFFFF"/>
<path d="M2.98209 35C2.143 35 1.6381 34.0523 2.08304 33.3409C2.63789 32.4538 3.27633 31.3685 3.66286 30.5C4.19328 29.3081 4.68727 27.7082 4.95814 26.7721C5.08963 26.3177 5.5034 26 5.97644 26L44.0299 26C44.4999 26 44.9116 26.3136 45.044 26.7646C45.3257 27.7247 45.8394 29.3815 46.3371 30.5C46.742 31.4097 47.3605 32.4668 47.8995 33.3278C48.3469 34.0424 47.8407 35 46.9976 35L2.98209 35Z" fill="#FFFFFF"/>
<path d="M4.66316 24C3.89423 24 3.38371 23.1941 3.69906 22.4929C4.41508 20.9006 5.48862 18.3668 5.96476 16.5C6.49383 14.4257 6.70545 11.5279 6.78391 10.0133C6.81315 9.44888 7.27677 9 7.84194 9L42.1579 9C42.7231 9 43.1867 9.44886 43.216 10.0133C43.2945 11.5278 43.5061 14.4257 44.0352 16.5C44.5114 18.3668 45.5849 20.9006 46.3009 22.4929C46.6163 23.1941 46.1058 24 45.3368 24L4.66316 24Z" fill="#FFFFFF"/>
</svg>
