<svg width="139" height="32" viewBox="0 0 139 32" fill="none" xmlns="http://www.w3.org/2000/svg">
<path d="M1.63374 26.5862C1.03642 26.5862 0.740531 25.8611 1.16733 25.4432L2.52903 24.1099C2.65363 23.9879 2.82106 23.9196 2.99544 23.9196L28.3657 23.9196C28.5148 23.9196 28.6595 23.9695 28.7768 24.0614L30.479 25.3948C30.9778 25.7855 30.7015 26.5862 30.0678 26.5862L1.63374 26.5862Z" fill="#1A1E21"/>
<path d="M1.90916 22.4C1.37214 22.4 1.04901 21.7934 1.33377 21.3381C1.68887 20.7704 2.09748 20.0758 2.34485 19.52C2.68432 18.7572 3.00048 17.7332 3.17383 17.1341C3.25799 16.8433 3.5228 16.64 3.82555 16.64L28.1798 16.64C28.4806 16.64 28.7441 16.8407 28.8288 17.1293C29.0091 17.7438 29.3378 18.8042 29.6564 19.52C29.9155 20.1022 30.3113 20.7787 30.6563 21.3297C30.9426 21.7871 30.6187 22.4 30.0791 22.4L1.90916 22.4Z" fill="#1A1E21"/>
<path d="M2.98435 15.36C2.49223 15.36 2.16549 14.8443 2.36732 14.3955C2.82557 13.3764 3.51264 11.7548 3.81737 10.56C4.15597 9.23252 4.29141 7.37789 4.34162 6.40855C4.36034 6.04733 4.65705 5.76005 5.01876 5.76005L26.981 5.76005C27.3427 5.76005 27.6394 6.04732 27.6581 6.40854C27.7084 7.37787 27.8439 9.23251 28.1825 10.56C28.4872 11.7548 29.1743 13.3764 29.6325 14.3955C29.8344 14.8443 29.5076 15.36 29.0155 15.36L2.98435 15.36Z" fill="#1A1E21"/>
<path d="M40.6255 19.3235C40.6933 19.8835 40.8885 20.3671 41.2109 20.7744C41.5334 21.1817 41.9491 21.4956 42.4582 21.7163C42.9843 21.9369 43.5698 22.0472 44.2147 22.0472C45.0801 22.0472 45.8099 21.9029 46.4038 21.6144C46.9978 21.309 47.2948 20.8338 47.2948 20.1889C47.2948 19.7307 47.1081 19.3659 46.7347 19.0944C46.3614 18.8228 45.8608 18.6022 45.2329 18.4325C44.6219 18.2628 43.9516 18.0931 43.2219 17.9234C42.4922 17.7537 41.754 17.5501 41.0073 17.3125C40.2776 17.0579 39.5988 16.7185 38.9709 16.2943C38.3599 15.87 37.8678 15.3185 37.4944 14.6397C37.1211 13.9439 36.9344 13.0699 36.9344 12.0178C36.9344 10.9995 37.2314 10.1001 37.8254 9.31949C38.4363 8.52189 39.2678 7.90248 40.32 7.46125C41.3891 7.00306 42.6025 6.77396 43.9601 6.77396C45.2838 6.77396 46.4632 7.037 47.4984 7.56307C48.5336 8.08915 49.3482 8.81039 49.9421 9.72678C50.553 10.6432 50.8585 11.6784 50.8585 12.8323H46.9893C46.9214 11.9838 46.6244 11.322 46.0984 10.8468C45.5892 10.3716 44.8341 10.1341 43.8328 10.1341C42.8486 10.1341 42.0934 10.3123 41.5673 10.6686C41.0412 11.025 40.7782 11.4747 40.7782 12.0178C40.7782 12.5269 40.9649 12.9257 41.3382 13.2142C41.7115 13.5027 42.2037 13.7402 42.8146 13.9269C43.4425 14.1136 44.1213 14.2918 44.851 14.4615C45.5977 14.6142 46.3359 14.8094 47.0657 15.047C47.7954 15.2845 48.4657 15.607 49.0766 16.0143C49.7045 16.4215 50.2052 16.9646 50.5785 17.6434C50.9518 18.3052 51.1385 19.1538 51.1385 20.1889C51.1385 21.835 50.5191 23.1163 49.2803 24.0327C48.0414 24.9491 46.302 25.4073 44.0619 25.4073C42.6873 25.4073 41.457 25.1442 40.3709 24.6182C39.2848 24.0921 38.4193 23.3709 37.7745 22.4545C37.1296 21.5381 36.7817 20.4944 36.7308 19.3235H40.6255ZM52.2393 10.745H59.7486V13.8505H52.2393V10.745ZM53.8684 7.18124H57.5085V20.6217C57.5085 21.0459 57.6188 21.3684 57.8394 21.589C58.077 21.7926 58.4249 21.8944 58.8831 21.8944H60.1559V25H58.8577C57.1946 25 55.9473 24.6351 55.1157 23.9054C54.2842 23.1757 53.8684 22.0811 53.8684 20.6217V7.18124ZM61.7801 10.745H65.4202V25H61.7801V10.745ZM65.4202 18.0252L65.0383 15.4033C65.0383 14.9621 65.0808 14.453 65.1656 13.876C65.2505 13.299 65.4456 12.7475 65.7511 12.2214C66.0735 11.6784 66.5657 11.2286 67.2275 10.8723C67.8893 10.5159 68.7888 10.3377 69.9258 10.3377V13.9015C68.9245 13.9015 68.0845 14.0118 67.4057 14.2324C66.7439 14.453 66.2432 14.8603 65.9038 15.4542C65.5814 16.0312 65.4202 16.8882 65.4202 18.0252ZM84.1106 25H80.4705V10.745H84.1106V25ZM80.4705 17.7198L80.8777 20.6471C80.8777 21.0884 80.8099 21.5805 80.6741 22.1235C80.5553 22.6666 80.3177 23.1927 79.9613 23.7018C79.6219 24.1939 79.1298 24.6012 78.4849 24.9236C77.8401 25.2461 77 25.4073 75.9649 25.4073C75.0485 25.4073 74.2339 25.2206 73.5211 24.8473C72.8084 24.4739 72.2484 23.8545 71.8411 22.989C71.4338 22.1235 71.2302 20.9696 71.2302 19.5271V10.745H74.8448V19.1962C74.8448 19.7562 74.8872 20.2653 74.9721 20.7235C75.0569 21.1817 75.2521 21.555 75.5576 21.8435C75.863 22.1151 76.3382 22.2508 76.9831 22.2508C77.4922 22.2508 78.0183 22.1066 78.5613 21.8181C79.1044 21.5296 79.5541 21.0544 79.9104 20.3926C80.2838 19.7307 80.4705 18.8398 80.4705 17.7198ZM99.5672 19.018C99.5672 20.2398 99.2871 21.3344 98.7271 22.3017C98.1671 23.269 97.3865 24.0327 96.3852 24.5927C95.384 25.1358 94.213 25.4073 92.8724 25.4073C91.413 25.4073 90.1317 25.0933 89.0286 24.4654C87.9425 23.8206 87.094 22.9296 86.4831 21.7926C85.8891 20.6556 85.5922 19.3574 85.5922 17.898C85.5922 16.4215 85.8891 15.1148 86.4831 13.9778C87.094 12.8408 87.9425 11.9499 89.0286 11.305C90.1317 10.6601 91.413 10.3377 92.8724 10.3377C94.1621 10.3377 95.3076 10.6262 96.3089 11.2032C97.3101 11.7632 98.0907 12.5014 98.6508 13.4178C99.2277 14.3172 99.5162 15.293 99.5162 16.3452H95.6725C95.6725 15.887 95.5791 15.4542 95.3925 15.047C95.2058 14.6397 94.9088 14.3087 94.5015 14.0542C94.0942 13.7827 93.5512 13.6469 92.8724 13.6469C92.0069 13.6469 91.3111 13.8336 90.7851 14.2069C90.259 14.5803 89.8771 15.0894 89.6396 15.7342C89.4189 16.3791 89.3086 17.1004 89.3086 17.898C89.3086 18.6786 89.4189 19.3913 89.6396 20.0362C89.8771 20.6641 90.259 21.1647 90.7851 21.5381C91.3111 21.9114 92.0069 22.0981 92.8724 22.0981C93.5512 22.0981 94.1027 21.9538 94.527 21.6653C94.9512 21.3769 95.2652 21.0035 95.4688 20.5453C95.6725 20.0701 95.7743 19.561 95.7743 19.018H99.5672ZM100.411 10.745H107.92V13.8505H100.411V10.745ZM102.04 7.18124H105.68V20.6217C105.68 21.0459 105.79 21.3684 106.011 21.589C106.248 21.7926 106.596 21.8944 107.054 21.8944H108.327V25H107.029C105.366 25 104.119 24.6351 103.287 23.9054C102.455 23.1757 102.04 22.0811 102.04 20.6217V7.18124ZM122.706 25H119.066V10.745H122.706V25ZM119.066 17.7198L119.473 20.6471C119.473 21.0884 119.406 21.5805 119.27 22.1235C119.151 22.6666 118.913 23.1927 118.557 23.7018C118.218 24.1939 117.726 24.6012 117.081 24.9236C116.436 25.2461 115.596 25.4073 114.561 25.4073C113.644 25.4073 112.83 25.2206 112.117 24.8473C111.404 24.4739 110.844 23.8545 110.437 22.989C110.03 22.1235 109.826 20.9696 109.826 19.5271V10.745H113.441V19.1962C113.441 19.7562 113.483 20.2653 113.568 20.7235C113.653 21.1817 113.848 21.555 114.153 21.8435C114.459 22.1151 114.934 22.2508 115.579 22.2508C116.088 22.2508 116.614 22.1066 117.157 21.8181C117.7 21.5296 118.15 21.0544 118.506 20.3926C118.879 19.7307 119.066 18.8398 119.066 17.7198ZM133.628 16.8543H137.268V25H133.628V16.8543ZM131.108 10.3377C133.127 10.3377 134.654 10.9232 135.69 12.0941C136.742 13.2651 137.268 14.8518 137.268 16.8543H133.628C133.628 16.2434 133.568 15.6918 133.449 15.1997C133.331 14.6906 133.085 14.2833 132.711 13.9778C132.355 13.6724 131.82 13.5196 131.108 13.5196C130.208 13.5196 129.529 13.7487 129.071 14.2069C128.63 14.6482 128.409 15.1657 128.409 15.7597H124.616C124.616 14.7924 124.871 13.9015 125.38 13.0869C125.889 12.2553 126.627 11.5935 127.595 11.1014C128.562 10.5923 129.733 10.3377 131.108 10.3377ZM133.984 16.0397L134.519 18.458C132.516 18.3731 131.074 18.5683 130.191 19.0434C129.326 19.5016 128.893 20.0701 128.893 20.749C128.893 21.2072 129.063 21.5466 129.402 21.7672C129.758 21.9878 130.166 22.0981 130.624 22.0981C131.065 22.0981 131.515 22.0302 131.973 21.8944C132.448 21.7587 132.839 21.4956 133.144 21.1053C133.466 20.715 133.628 20.138 133.628 19.3744L134.315 20.4944C134.315 21.4447 134.137 22.2932 133.78 23.0399C133.424 23.7697 132.915 24.3466 132.253 24.7709C131.608 25.1952 130.828 25.4073 129.911 25.4073C128.978 25.4073 128.146 25.2376 127.417 24.8982C126.704 24.5418 126.135 24.0327 125.711 23.3709C125.304 22.709 125.1 21.9029 125.1 20.9526C125.1 20.0362 125.278 19.281 125.635 18.6871C126.008 18.0931 126.5 17.6264 127.111 17.287C127.739 16.9306 128.435 16.6676 129.198 16.4979C129.979 16.3282 130.777 16.2179 131.591 16.167C132.423 16.0991 133.22 16.0567 133.984 16.0397Z" fill="#252132"/>
</svg>
